<svg width="15" height="14" viewBox="0 0 15 14" fill="none" xmlns="http://www.w3.org/2000/svg">
<path fill-rule="evenodd" clip-rule="evenodd" d="M1.48954 6.51762C1.29836 6.51762 1.14338 6.67259 1.14338 6.86377C1.14338 7.05495 1.29836 7.20992 1.48954 7.20992L7.01781 7.20992L7.01781 12.7382C7.01781 12.9294 7.17279 13.0843 7.36396 13.0843C7.55514 13.0843 7.71011 12.9294 7.71011 12.7382L7.71012 7.20992H13.2384C13.4296 7.20992 13.5845 7.05494 13.5845 6.86377C13.5845 6.67259 13.4296 6.51762 13.2384 6.51762H7.71012L7.71011 0.989344C7.71011 0.798169 7.55514 0.64319 7.36396 0.64319C7.17279 0.643189 7.01781 0.798168 7.01781 0.989344L7.01781 6.51762L1.48954 6.51762Z" fill="#DBDBDB"/>
<path d="M1.14338 6.86377L1.64338 6.86377V6.86377L1.14338 6.86377ZM1.48954 6.51762L1.48954 6.01762L1.48954 6.51762ZM1.48954 7.20992L1.48954 7.70992L1.48954 7.70992L1.48954 7.20992ZM7.01781 7.20992H7.51781V6.70992H7.01781V7.20992ZM7.01781 12.7382L7.51781 12.7382L7.51781 12.7382L7.01781 12.7382ZM7.36396 13.0843L7.36396 12.5843L7.36396 13.0843ZM7.71011 12.7382L8.21011 12.7382L8.21012 12.7382L7.71011 12.7382ZM7.71012 7.20992V6.70992H7.21012V7.20992H7.71012ZM7.71012 6.51762H7.21012V7.01762H7.71012V6.51762ZM7.71011 0.989344L8.21012 0.989344L8.21011 0.989344L7.71011 0.989344ZM7.36396 0.64319L7.36396 1.14319L7.36396 0.64319ZM7.01781 0.989344L7.51781 0.989344L7.51781 0.989344L7.01781 0.989344ZM7.01781 6.51762V7.01762L7.51781 7.01762L7.51781 6.51762H7.01781ZM1.64338 6.86377C1.64338 6.94874 1.5745 7.01762 1.48954 7.01762L1.48954 6.01762C1.02222 6.01762 0.643382 6.39645 0.643382 6.86377L1.64338 6.86377ZM1.48954 6.70992C1.5745 6.70992 1.64338 6.7788 1.64338 6.86377L0.643382 6.86377C0.643382 7.33109 1.02222 7.70992 1.48954 7.70992L1.48954 6.70992ZM7.01781 6.70992L1.48954 6.70992L1.48954 7.70992L7.01781 7.70992L7.01781 6.70992ZM7.51781 12.7382L7.51781 7.20992H6.51781L6.51781 12.7382L7.51781 12.7382ZM7.36396 12.5843C7.44893 12.5843 7.51781 12.6532 7.51781 12.7382L6.51781 12.7382C6.51781 13.2055 6.89664 13.5843 7.36396 13.5843L7.36396 12.5843ZM7.21012 12.7382C7.21012 12.6532 7.27899 12.5843 7.36396 12.5843L7.36396 13.5843C7.83128 13.5843 8.21011 13.2055 8.21011 12.7382L7.21012 12.7382ZM7.21012 7.20992L7.21012 12.7382L8.21012 12.7382L8.21012 7.20992H7.21012ZM13.2384 6.70992H7.71012V7.70992H13.2384V6.70992ZM13.0845 6.86377C13.0845 6.7788 13.1534 6.70992 13.2384 6.70992V7.70992C13.7057 7.70992 14.0845 7.33109 14.0845 6.86377H13.0845ZM13.2384 7.01762C13.1534 7.01762 13.0845 6.94874 13.0845 6.86377H14.0845C14.0845 6.39645 13.7057 6.01762 13.2384 6.01762V7.01762ZM7.71012 7.01762H13.2384V6.01762H7.71012V7.01762ZM7.21012 0.989344L7.21012 6.51762H8.21012L8.21012 0.989344L7.21012 0.989344ZM7.36396 1.14319C7.27899 1.14319 7.21012 1.07431 7.21012 0.989344L8.21011 0.989344C8.21011 0.522026 7.83128 0.14319 7.36396 0.14319L7.36396 1.14319ZM7.51781 0.989344C7.51781 1.07431 7.44893 1.14319 7.36396 1.14319L7.36396 0.14319C6.89664 0.14319 6.51781 0.522026 6.51781 0.989344L7.51781 0.989344ZM7.51781 6.51762L7.51781 0.989344L6.51781 0.989344L6.51781 6.51762H7.51781ZM1.48954 7.01762L7.01781 7.01762V6.01762L1.48954 6.01762L1.48954 7.01762Z" fill="#DBDBDB"/>
</svg>
